<svg data-v-423bf9ae="" xmlns="http://www.w3.org/2000/svg" viewBox="0 0 522 111" class="iconLeftSlogan"><!----><!----><!----><g data-v-423bf9ae="" id="1354a769-1c03-4df3-ac06-08bfe970acce" fill="#000000" transform="matrix(4.803843162490988,0,0,4.803843162490988,127.23254909822046,-19.64771831392212)"><path d="M0.88 6.83L0.88 7.45L5.77 7.45L0.76 13.22L0.76 13.78L6.80 13.78L6.80 13.16L1.68 13.16L6.69 7.39L6.69 6.83ZM8.12 10.25C8.12 12.35 9.49 13.97 11.61 13.97C13.41 13.97 14.18 12.98 14.64 12.03L13.97 11.76C13.58 12.64 12.92 13.33 11.61 13.33C10.02 13.33 8.95 12.24 8.85 10.46L14.85 10.46L14.85 10.01C14.85 7.90 13.44 6.64 11.56 6.64C9.62 6.64 8.12 8.20 8.12 10.25ZM8.85 9.84C9.02 8.26 10.14 7.28 11.56 7.28C13.01 7.28 14.07 8.18 14.13 9.84ZM16.70 6.83L16.70 13.78L17.40 13.78L17.40 10.22C17.40 8.29 18.51 7.34 19.95 7.34C21.25 7.34 22.11 7.98 22.11 9.52L22.11 13.78L22.81 13.78L22.81 9.46C22.81 7.57 21.52 6.69 20.09 6.69C18.66 6.69 17.95 7.41 17.57 8.12L17.37 8.12L17.37 6.83ZM24.65 4.80C24.65 5.21 24.95 5.52 25.37 5.52C25.79 5.52 26.08 5.21 26.08 4.80C26.08 4.40 25.79 4.09 25.37 4.09C24.95 4.09 24.65 4.40 24.65 4.80ZM25.72 6.83L25.02 6.83L25.02 13.78L25.72 13.78ZM27.71 8.82L28.32 9.10C28.83 8.04 29.58 7.28 30.97 7.28C32.38 7.28 33.22 8.04 33.22 9.23L33.22 9.81L30.02 10.11C28.71 10.23 27.65 10.81 27.65 11.94C27.65 13.20 28.69 13.97 30.23 13.97C31.86 13.97 32.68 13.19 33.05 12.45L33.22 12.45L33.22 13.78L33.92 13.78L33.92 9.28C33.92 7.67 32.84 6.64 31.00 6.64C29.25 6.64 28.18 7.73 27.71 8.82ZM28.35 11.97C28.35 11.27 28.95 10.81 30.16 10.70L33.22 10.42L33.22 10.53C33.22 12.33 31.96 13.36 30.25 13.36C29.12 13.36 28.35 12.88 28.35 11.97ZM40.63 8.55C40.63 9.81 41.66 10.28 43.06 10.49L43.82 10.60C44.97 10.77 45.79 11.03 45.79 11.84C45.79 12.71 44.93 13.33 43.58 13.33C42.18 13.33 41.22 12.61 40.74 11.34L40.10 11.61C40.56 12.78 41.66 13.97 43.58 13.97C45.37 13.97 46.49 13.06 46.49 11.83C46.49 10.68 45.54 10.19 43.93 9.95L43.18 9.84C42.15 9.69 41.33 9.42 41.33 8.53C41.33 7.70 42.08 7.25 43.13 7.25C44.23 7.25 45.23 7.78 45.92 8.86L46.49 8.51C45.53 7.18 44.46 6.64 43.12 6.64C41.73 6.64 40.63 7.36 40.63 8.55ZM48.20 16.58L48.90 16.58L48.90 12.43L49.07 12.43C49.46 13.19 50.23 13.97 51.76 13.97C53.62 13.97 55.03 12.52 55.03 10.30C55.03 8.09 53.62 6.64 51.76 6.64C50.23 6.64 49.46 7.42 49.07 8.18L48.87 8.18L48.87 6.83L48.20 6.83ZM51.63 13.33C50.04 13.33 48.90 12.12 48.90 10.30C48.90 8.48 50.04 7.28 51.63 7.28C53.23 7.28 54.31 8.46 54.31 10.30C54.31 12.15 53.23 13.33 51.63 13.33ZM56.43 10.30C56.43 12.43 57.78 13.97 59.85 13.97C61.92 13.97 63.27 12.43 63.27 10.30C63.27 8.18 61.92 6.64 59.85 6.64C57.78 6.64 56.43 8.18 56.43 10.30ZM57.13 10.30C57.13 8.60 58.18 7.28 59.85 7.28C61.50 7.28 62.57 8.53 62.57 10.30C62.57 12.05 61.50 13.33 59.85 13.33C58.18 13.33 57.13 12.12 57.13 10.30ZM65.79 6.83L65.11 6.83L65.11 13.78L65.81 13.78L65.81 9.31C65.81 8.04 66.47 7.45 67.54 7.45L68.67 7.45L68.67 6.80L67.66 6.80C66.72 6.80 66.23 7.07 65.95 7.69L65.79 7.69ZM69.20 6.83L69.20 7.45L71.53 7.45L71.53 12.85C71.53 13.44 71.86 13.78 72.42 13.78L74.27 13.78L74.27 13.16L72.62 13.16C72.37 13.16 72.23 13.02 72.23 12.74L72.23 7.45L74.66 7.45L74.66 6.83L72.23 6.83L72.23 4.40L71.53 4.40L71.53 6.83ZM76.24 8.55C76.24 9.81 77.28 10.28 78.68 10.49L79.44 10.60C80.58 10.77 81.41 11.03 81.41 11.84C81.41 12.71 80.54 13.33 79.20 13.33C77.80 13.33 76.83 12.61 76.36 11.34L75.71 11.61C76.17 12.78 77.28 13.97 79.20 13.97C80.99 13.97 82.11 13.06 82.11 11.83C82.11 10.68 81.16 10.19 79.55 9.95L78.79 9.84C77.77 9.69 76.94 9.42 76.94 8.53C76.94 7.70 77.70 7.25 78.75 7.25C79.84 7.25 80.85 7.78 81.54 8.86L82.11 8.51C81.14 7.18 80.08 6.64 78.74 6.64C77.35 6.64 76.24 7.36 76.24 8.55Z"></path></g><defs data-v-423bf9ae=""><linearGradient data-v-423bf9ae="" gradientTransform="rotate(25)" id="ae561a3f-3b23-4afd-bc01-ba481983cfe0" x1="0%" y1="0%" x2="100%" y2="0%"><stop data-v-423bf9ae="" offset="0%" style="stop-color: rgb(112, 36, 61); stop-opacity: 1;"></stop><stop data-v-423bf9ae="" offset="100%" style="stop-color: rgb(193, 87, 103); stop-opacity: 1;"></stop></linearGradient></defs><g data-v-423bf9ae="" id="40985e66-9d92-44ac-bdd3-09012195318e" transform="matrix(1.1099889119466146,0,0,1.1099889119466146,0.5403435668432763,0.5822352954535717)" stroke="none" fill="url(#ae561a3f-3b23-4afd-bc01-ba481983cfe0)"><path clip-rule="evenodd" d="M37.129 48.614c-5.702-1.706-11.507-3.31-17.817-4.409-1.312-4.272-2.162-8.583-2.645-13.584-.151-1.59-.508-3.665-.176-5.117.471-2.057 5.136-6.457 6.703-7.938 3.049-2.883 5.71-4.331 8.824-5.645 2.342-.99 7.928-.003 10.76.706 3.04.76 5.658 1.962 7.76 3.352.834 4.055 1.35 8.297 1.942 12.877.179 1.4.738 3.29.527 4.411-.262 1.405-2.74 2.75-4.057 3.881-4.174 3.582-8.377 7.609-11.821 11.466z"></path><path d="M37.132 48.625l-.006-.001c-5.426-1.623-11.339-3.281-17.814-4.409-1.336-4.331-2.178-8.648-2.654-13.593-.029-.308-.067-.636-.105-.972-.159-1.396-.34-2.977-.072-4.148.471-2.045 5.139-6.461 6.672-7.911l.033-.031c3.046-2.881 5.731-4.34 8.826-5.648.658-.276 1.62-.417 2.856-.417 2.52 0 5.739.58 7.912 1.124 2.83.707 5.515 1.866 7.764 3.353.769 3.723 1.268 7.62 1.799 11.745l.146 1.139c.057.443.149.926.249 1.437.208 1.086.425 2.209.281 2.976-.191 1.025-1.573 2.03-2.79 2.916-.469.341-.91.664-1.271.971-4.44 3.812-8.527 7.777-11.82 11.467l-.006.002zm-2.264-37.112c-1.235 0-2.192.141-2.849.418-3.092 1.305-5.776 2.764-8.82 5.643l-.033.031c-1.533 1.45-6.2 5.862-6.667 7.903-.268 1.167-.086 2.747.073 4.14.038.337.075.664.105.972.476 4.945 1.317 9.261 2.646 13.583 6.468 1.121 12.379 2.777 17.804 4.4 3.292-3.689 7.38-7.652 11.818-11.462.36-.31.803-.633 1.271-.974 1.214-.885 2.591-1.886 2.784-2.902.143-.765-.073-1.886-.281-2.969-.098-.513-.192-.996-.249-1.438l-.146-1.139c-.53-4.125-1.03-8.022-1.796-11.738-2.242-1.478-4.925-2.636-7.752-3.344-2.173-.544-5.389-1.124-7.908-1.124z"></path><path clip-rule="evenodd" d="M82.822 26.74c4.388.904 7.845 2.742 11.114 4.762 1.155 2.908 2.214 6.13 3.176 9.528.937 3.304 2.188 7.222 1.765 10.936-.28 2.439-2.176 6.5-3.353 8.645-1.414 2.575-3.232 5.005-5.117 6.703a104.753 104.753 0 0 0-11.994-5.291c-.37-6.081-1.555-11.183-3.001-16.406-.395-1.424-1.498-3.804-1.411-4.94.114-1.492 3.371-5.367 4.232-6.704 1.85-2.851 3.142-5.037 4.589-7.233z"></path><path d="M90.41 67.327l-.006-.003a105.404 105.404 0 0 0-11.994-5.291c-.39-6.289-1.677-11.605-3.008-16.415-.131-.468-.336-1.034-.552-1.635-.43-1.192-.917-2.542-.857-3.308.084-1.094 1.846-3.458 3.132-5.184.469-.626.872-1.167 1.102-1.525.884-1.365 1.631-2.56 2.351-3.713.762-1.221 1.482-2.375 2.236-3.518 4.501.921 8.007 2.832 11.129 4.759 1.101 2.766 2.169 5.971 3.179 9.533.076.264.15.531.229.803.903 3.148 1.927 6.718 1.533 10.137-.288 2.536-2.317 6.767-3.351 8.649-1.466 2.67-3.284 5.053-5.117 6.705l-.006.006zM82.819 26.75a218 218 0 0 0-2.224 3.513c-.723 1.155-1.469 2.35-2.354 3.716-.229.358-.633.899-1.1 1.525-1.285 1.723-3.05 4.084-3.131 5.174-.06.76.428 2.108.857 3.299.219.6.423 1.168.552 1.637 1.334 4.811 2.616 10.128 3.001 16.409a104.672 104.672 0 0 1 11.985 5.28c1.831-1.652 3.646-4.03 5.108-6.697 1.031-1.883 3.06-6.108 3.35-8.641.391-3.416-.633-6.982-1.533-10.129a89 89 0 0 1-.229-.804c-1.01-3.561-2.078-6.765-3.177-9.525-3.112-1.923-6.613-3.832-11.105-4.757z"></path><path clip-rule="evenodd" d="M53.362 34.325c7.509 1.254 13.784 3.739 19.933 6.352 1.38 4.638 3.049 9.602 3.882 15.17.263 1.762.824 4.271.53 5.821-.262 1.372-2.167 2.873-3.354 4.058-3.812 3.814-7.431 7.441-11.994 10.233-7.541-1.342-14.284-3.474-20.287-6.352-1.241-4.845-2.283-9.846-3.351-15.17-.312-1.545-1.228-3.61-1.061-4.94.146-1.145 2.182-3.064 3.354-4.235 3.938-3.937 8.529-7.603 12.348-10.937z"></path><path d="M62.358 75.97h-.002c-7.426-1.323-14.253-3.46-20.29-6.352-1.31-5.097-2.418-10.506-3.357-15.181-.105-.526-.279-1.104-.463-1.715-.348-1.155-.706-2.351-.595-3.227.131-1.048 1.805-2.704 3.026-3.915l.329-.326c2.827-2.827 5.947-5.476 8.964-8.038a369.12 369.12 0 0 0 3.386-2.899c7.588 1.263 14.013 3.829 19.944 6.349.222.741.448 1.484.676 2.234 1.233 4.059 2.508 8.256 3.209 12.942.052.35.116.724.181 1.118.275 1.623.587 3.462.349 4.709-.208 1.096-1.46 2.27-2.563 3.306-.284.266-.55.517-.79.758l-.041.037c-3.809 3.814-7.406 7.412-11.956 10.195l-.007.005zm-8.999-41.636c-1.068.938-2.19 1.891-3.377 2.898-3.018 2.562-6.137 5.209-8.963 8.037-.103.104-.214.212-.327.327-1.152 1.139-2.891 2.861-3.021 3.902-.111.872.249 2.066.595 3.217.184.613.357 1.192.462 1.719.939 4.672 2.048 10.082 3.352 15.17 6.029 2.887 12.854 5.023 20.276 6.344 4.547-2.781 8.145-6.379 11.95-10.189l.041-.041c.241-.237.508-.489.789-.755 1.104-1.035 2.354-2.204 2.56-3.298.237-1.241-.073-3.078-.346-4.7-.067-.396-.131-.769-.184-1.115-.702-4.688-1.976-8.884-3.209-12.941-.228-.752-.455-1.495-.671-2.229-5.923-2.514-12.348-5.079-19.927-6.346z"></path><g><path clip-rule="evenodd" d="M41.539 70.138c6.246 2.754 12.822 5.172 20.642 6.351.763 2.019 1.154 4.164 1.766 6.525.507 1.956 1.886 4.652 1.588 6.53-.303 1.888-4.73 4.498-6.881 5.469-6.476 2.919-13.487 2.77-20.639.352-2.724-.919-7.225-2.718-8.645-4.235-1.248-1.331-2.064-4.14-2.648-6.174-.706-2.47-.979-4.827-1.233-7.584a123.16 123.16 0 0 0 16.05-7.234z"></path><path d="M48.388 97.199c-3.301 0-6.792-.612-10.377-1.823-3.159-1.071-7.319-2.82-8.648-4.24-1.261-1.344-2.098-4.254-2.653-6.178-.729-2.55-.998-5.044-1.23-7.587a124.692 124.692 0 0 0 16.056-7.241c5.531 2.435 12.303 5.094 20.647 6.349.544 1.429.898 2.919 1.274 4.495.157.66.319 1.343.498 2.04.157.595.39 1.252.636 1.947.57 1.612 1.16 3.276.952 4.583-.306 1.915-4.855 4.56-6.887 5.478-3.208 1.446-6.663 2.177-10.268 2.177zm-6.852-27.051a123.343 123.343 0 0 1-16.044 7.23c.24 2.529.51 5.023 1.238 7.573.554 1.924 1.39 4.83 2.648 6.171 1.325 1.417 5.483 3.164 8.64 4.229 3.582 1.212 7.071 1.829 10.371 1.829 3.603 0 7.055-.735 10.261-2.18 2.025-.914 6.572-3.555 6.875-5.458.209-1.304-.381-2.968-.951-4.574-.246-.695-.482-1.355-.637-1.95a98.032 98.032 0 0 1-.5-2.04c-.373-1.578-.728-3.068-1.264-4.488-8.34-1.248-15.114-3.907-20.637-6.342z"></path></g><g><path clip-rule="evenodd" d="M68.887 3.806c.124 2.597.323 5.241-.176 7.584-6.715.521-12.814 1.656-17.643 4.058-4.647-2.881-10.585-4.467-17.994-4.586-.108-2.539-.095-5.198-.352-7.586 9.62-4.498 27.053-4.269 36.165.53z"></path><path d="M51.066 15.459l-.003-.002c-4.721-2.927-10.772-4.469-17.989-4.585a88.62 88.62 0 0 1-.087-2.396c-.047-1.746-.096-3.551-.275-5.199C37.105 1.216 43.467.04 50.173.04c7.36 0 14.182 1.37 18.715 3.758.02.253.03.498.044.743.118 2.325.24 4.728-.214 6.853-7.672.602-13.276 1.891-17.647 4.063l-.005.002zM50.173.058c-6.704 0-13.062 1.177-17.447 3.227.184 1.638.232 3.444.281 5.191.021.786.043 1.597.076 2.386 7.21.107 13.264 1.648 17.985 4.575 4.371-2.173 9.976-3.462 17.643-4.056.442-2.114.318-4.516.202-6.839-.014-.245-.024-.491-.037-.736C64.35 1.427 57.53.058 50.173.058z"></path><path clip-rule="evenodd" d="M69.768 4.159c11.855 4.963 20.377 13.259 25.579 24.875-.481.518-.812 1.186-1.233 1.763-3.252-2.041-6.961-3.623-11.114-4.762-4.069-5.282-7.902-10.797-13.583-14.467.178-2.408.47-4.703.351-7.409z"></path><path d="M94.116 30.81l-.009-.006c-3.216-2.019-6.955-3.62-11.111-4.76-.467-.601-.923-1.201-1.38-1.802-3.524-4.627-7.169-9.412-12.206-12.666.035-.531.079-1.047.122-1.563.157-1.836.319-3.734.225-5.854v-.014l.014.005c11.794 4.937 20.401 13.307 25.583 24.879-.299.333-.546.721-.784 1.096-.144.226-.291.459-.449.677l-.005.008zM69.776 4.174c.092 2.114-.068 4.009-.225 5.84-.044.517-.087 1.034-.128 1.556 5.037 3.246 8.684 8.032 12.208 12.661.457.601.915 1.201 1.374 1.799 4.149 1.134 7.888 2.736 11.104 4.754.156-.215.303-.446.443-.669.238-.376.486-.765.784-1.088-5.179-11.552-13.777-19.918-25.56-24.853z"></path><path clip-rule="evenodd" d="M15.784 25.504c.347 6.89 1.006 13.462 3 18.702-3.154 4.727-6.073 9.686-7.057 16.582-2.476.792-6.3.624-8.821 0-3.192-4.174-2.96-12.652-1.94-18.876 1.016-6.205 3.144-11.958 5.646-16.054 2.456-1.121 6.273-.991 9.172-.354z"></path><path d="M7.612 61.33c-1.625 0-3.339-.194-4.707-.535C-.949 55.764.44 45.068.958 41.91c.967-5.916 3.024-11.768 5.646-16.058 1.208-.551 2.846-.843 4.742-.843 1.439 0 3.016.174 4.44.486.318 6.172.916 13.211 3.006 18.707-3.019 4.533-6.05 9.539-7.054 16.588-1.098.356-2.523.54-4.126.54zm3.734-36.3c-1.894 0-3.529.289-4.731.837C4.002 30.15 1.943 36.001.978 41.913.461 45.07-.928 55.755 2.914 60.782c1.36.333 3.076.527 4.698.527 1.603 0 3.024-.184 4.113-.53.998-7.043 4.03-12.053 7.052-16.579-2.094-5.49-2.691-12.531-3.003-18.696a21.83 21.83 0 0 0-4.428-.474z"></path><path clip-rule="evenodd" d="M99.582 53.201c.202-.027.314.041.352.177-.84 12.08-5.444 21.166-11.466 28.402-.752.903-1.413 2.451-2.821 2.47-.528-1.31.694-2.595 1.233-3.704 1.714-3.542 3.396-7.868 4.058-12.702 3.851-3.911 6.449-9.078 8.644-14.643z"></path><path d="M85.638 84.259v-.006c-.4-.99.208-1.985.747-2.861.181-.299.352-.577.486-.851 2.17-4.482 3.499-8.638 4.058-12.697 4.239-4.312 6.847-10.09 8.646-14.645a.307.307 0 0 1 .092-.014c.148 0 .243.062.279.189-.75 10.744-4.502 20.035-11.472 28.41a9.556 9.556 0 0 0-.51.696c-.576.824-1.228 1.763-2.317 1.777h-.009zm14.028-31.055c-.024 0-.054.003-.084.006-1.791 4.55-4.398 10.333-8.637 14.64-.557 4.06-1.885 8.215-4.059 12.699-.132.272-.305.556-.485.853-.535.87-1.14 1.858-.749 2.84 1.078-.021 1.726-.952 2.296-1.771.173-.251.34-.489.511-.695 6.968-8.375 10.718-17.66 11.466-28.396-.034-.116-.118-.176-.259-.176z"></path><g><path clip-rule="evenodd" d="M11.551 61.492c3.284 6.536 7.742 11.896 13.408 16.055.05 5.537 2.087 10.027 3.528 13.582-2.25.502-4.904-.003-6.88-.352A50.837 50.837 0 0 1 6.612 74.016c-1.958-3.522-3.8-6.811-3.706-12.349 2.573.25 6.327.394 8.645-.175z"></path><path d="M26.371 91.35c-1.58 0-3.215-.287-4.53-.52l-.235-.043c-6.134-4.345-11.322-10.141-15.003-16.765l-.029-.049c-1.939-3.495-3.773-6.792-3.676-12.306v-.011l.01.003a46.92 46.92 0 0 0 4.327.217c1.796 0 3.249-.131 4.314-.396 3.294 6.541 7.804 11.939 13.417 16.057.048 5.103 1.782 9.322 3.176 12.714l.356.874.003.01-.011.003a9.752 9.752 0 0 1-2.119.212zM2.917 61.679c-.095 5.503 1.736 8.797 3.675 12.284l.028.049c3.679 6.621 8.865 12.415 14.993 16.76l.231.037c1.314.232 2.948.522 4.527.522.772 0 1.479-.07 2.104-.208-.114-.281-.232-.568-.353-.86-1.393-3.396-3.126-7.616-3.172-12.716-5.61-4.109-10.122-9.514-13.408-16.049-1.056.265-2.508.4-4.307.4-1.702 0-3.284-.119-4.318-.219z"></path></g><g><path clip-rule="evenodd" d="M49.48 99.422c-.098-.257.206-.912-.176-.882 6.89-1.579 13.119-3.813 16.933-8.467 7.629-.314 13.904-1.977 18.173-5.648 2.143.734-1.012 2.638-2.294 3.706-7.655 6.368-19.451 12.33-32.636 11.291z"></path><path d="M52.497 99.551c-1.006 0-2.021-.043-3.018-.118-.044-.103-.026-.254-.006-.403.021-.175.044-.354-.027-.435-.029-.036-.073-.043-.141-.043l-.003-.023c6.084-1.393 12.852-3.488 16.931-8.462 8.202-.339 14.145-2.184 18.172-5.646.449.146.692.356.735.623.114.709-1.19 1.697-2.235 2.486-.29.222-.564.427-.783.609-4.123 3.43-15.265 11.412-29.625 11.412zm-3.122-1.017a.148.148 0 0 1 .087.046c.075.091.052.274.029.452-.019.146-.037.292-.003.384.989.076 2.003.113 3.009.113 14.354 0 25.491-7.976 29.613-11.407.217-.181.492-.386.782-.607 1.041-.788 2.339-1.769 2.229-2.468-.043-.259-.283-.465-.714-.61-4.021 3.462-9.968 5.31-18.17 5.646-4.056 4.954-10.792 7.056-16.862 8.451z"></path></g><g><path d="M50.111 99.666C22.569 99.666.163 77.26.163 49.717c0-27.542 22.406-49.95 49.948-49.95s49.948 22.408 49.948 49.95c0 27.543-22.406 49.949-49.948 49.949zm0-98.514c-26.777 0-48.563 21.786-48.563 48.565 0 26.777 21.786 48.563 48.563 48.563 26.779 0 48.562-21.786 48.562-48.563 0-26.779-21.783-48.565-48.562-48.565z"></path></g></g></g><!----><g data-v-423bf9ae="" id="9b572997-8779-4c3b-8ea4-d4850710648d" fill="#000000" transform="matrix(0.9934354157648329,0,0,0.9934354157648329,130.12844148997786,57.27798512294911)"><path d="M0.76 8.24L0.76 8.24L0.76 8.24Q0.76 6.92 1.37 5.72L1.37 5.72L1.37 5.72Q1.99 4.52 3.22 3.72L3.22 3.72L3.22 3.72Q4.46 2.92 6.08 2.92L6.08 2.92L6.08 2.92Q7.35 2.92 8.93 3.57L8.93 3.57L8.93 2.86L9.50 2.86L9.59 5.92L9.04 5.93L8.95 4.48L8.95 4.48Q8.87 4.41 8.59 4.24L8.59 4.24L8.59 4.24Q8.34 4.07 7.59 3.83L7.59 3.83L7.59 3.83Q6.86 3.60 5.96 3.60L5.96 3.60L5.96 3.60Q4.98 3.60 4.21 3.93L4.21 3.93L4.21 3.93Q3.45 4.27 2.98 4.83L2.98 4.83L2.98 4.83Q2.52 5.39 2.27 6.08L2.27 6.08L2.27 6.08Q2.02 6.78 2.02 7.57L2.02 7.57L2.02 7.57Q2.02 9.33 3.14 10.69L3.14 10.69L3.14 10.69Q4.26 12.05 6.12 12.05L6.12 12.05L6.12 12.05Q6.82 12.05 7.45 11.85L7.45 11.85L7.45 11.85Q8.08 11.66 8.30 11.48L8.30 11.48L8.54 11.28L8.54 8.78L6.88 8.78L6.86 8.23L10.73 8.23L10.74 8.78L9.67 8.78L9.67 11.64L8.89 11.98L8.89 11.98Q8.19 12.30 7.96 12.39L7.96 12.39L7.96 12.39Q7.71 12.48 7.07 12.61L7.07 12.61L7.07 12.61Q6.46 12.74 5.85 12.74L5.85 12.74L5.85 12.74Q4.55 12.74 3.58 12.37L3.58 12.37L3.58 12.37Q2.59 12.00 1.98 11.36L1.98 11.36L1.98 11.36Q1.39 10.76 1.07 9.94L1.07 9.94L1.07 9.94Q0.76 9.15 0.76 8.24ZM18.49 3.64L18.48 3.08L25.69 3.08L25.69 3.08Q25.70 4.14 25.76 5.28L25.76 5.28L25.21 5.30L25.21 5.30Q25.20 4.66 25.14 4.25L25.14 4.25L25.14 4.25Q25.10 3.89 25.05 3.80L25.05 3.80L25.05 3.80Q24.99 3.71 24.88 3.69L24.88 3.69L24.88 3.69Q24.78 3.68 24.19 3.68L24.19 3.68L21.81 3.68L21.81 3.68Q21.27 3.68 21.12 3.77L21.12 3.77L21.12 3.77Q21 3.86 21 4.33L21 4.33L21 6.28L21 6.28Q21 6.69 21.05 6.76L21.05 6.76L21.05 6.76Q21.12 6.84 21.46 6.84L21.46 6.84L23.58 6.84L23.58 6.84Q23.94 6.84 24.02 6.73L24.02 6.73L24.02 6.73Q24.10 6.63 24.11 6.14L24.11 6.14L24.11 5.61L24.62 5.63L24.62 8.97L24.11 8.97L24.11 8.24L24.11 8.24Q24.11 7.66 24.04 7.57L24.04 7.57L24.04 7.57Q23.95 7.46 23.60 7.46L23.60 7.46L21.51 7.46L21.51 7.46Q21.17 7.46 21.09 7.54L21.09 7.54L21.09 7.54Q21 7.63 21 7.89L21 7.89L21 11.20L21 11.20Q21 11.57 21.09 11.67L21.09 11.67L21.09 11.67Q21.17 11.77 21.44 11.77L21.44 11.77L21.44 11.77Q24.36 11.75 24.89 11.69L24.89 11.69L24.89 11.69Q25.41 11.63 25.49 11.38L25.49 11.38L25.50 11.36L25.50 11.35L25.73 10.17L26.21 10.25L25.86 12.41L18.76 12.41L18.76 11.87L19.13 11.87L19.13 11.87Q19.69 11.87 19.77 11.80L19.77 11.80L19.77 11.80Q19.87 11.72 19.87 11.33L19.87 11.33L19.87 4.24L19.87 4.24Q19.87 3.82 19.71 3.73L19.71 3.73L19.71 3.73Q19.54 3.64 18.89 3.64L18.89 3.64L18.49 3.64ZM34.10 12.41L34.08 11.87L34.25 11.87L34.25 11.87Q34.64 11.87 34.77 11.73L34.77 11.73L34.77 11.73Q34.90 11.57 35.23 10.83L35.23 10.83L36.14 8.82L36.72 7.53L36.72 7.53Q36.98 6.97 37.02 6.86L37.02 6.86L37.02 6.86Q37.09 6.70 37.14 6.60L37.14 6.60L37.14 6.60Q37.19 6.51 37.21 6.45L37.21 6.45L37.30 6.21L38.73 2.74L39.03 2.74L39.03 2.74Q39.88 4.98 42.07 10.25L42.07 10.25L42.07 10.25Q42.52 11.34 42.71 11.64L42.71 11.64L42.71 11.64Q42.85 11.87 43.29 11.87L43.29 11.87L43.50 11.87L43.48 12.41L40.29 12.41L40.30 11.87L40.72 11.87L40.72 11.87Q41.34 11.87 41.34 11.70L41.34 11.70L41.34 11.70Q41.34 11.63 41.20 11.27L41.20 11.27L40.16 8.72L36.91 8.72L35.81 11.18L35.81 11.18Q35.67 11.50 35.67 11.63L35.67 11.63L35.67 11.63Q35.67 11.79 35.77 11.83L35.77 11.83L35.77 11.83Q35.86 11.87 36.24 11.87L36.24 11.87L36.82 11.87L36.82 12.41L34.10 12.41ZM38.60 4.79L37.18 8.10L39.92 8.10L38.60 4.79ZM51.56 3.64L51.17 3.64L51.19 3.08L54.41 3.08L54.41 3.08Q55.54 3.08 56.14 3.21L56.14 3.21L56.14 3.21Q56.79 3.37 57.25 3.75L57.25 3.75L57.25 3.75Q58.26 4.57 58.26 5.71L58.26 5.71L58.26 5.71Q58.26 6.43 57.78 7.04L57.78 7.04L57.78 7.04Q57.29 7.66 56.26 7.92L56.26 7.92L58.95 11.49L58.95 11.49Q59.25 11.87 59.55 11.87L59.55 11.87L60.15 11.87L60.18 12.41L58.15 12.41L55.15 8.10L54.98 8.10L54.98 8.10Q54.94 8.10 54.89 8.11L54.89 8.11L54.89 8.11Q54.83 8.11 54.82 8.11L54.82 8.11L54.82 8.11Q53.94 8.11 53.54 8.03L53.54 8.03L53.54 11.46L53.54 11.46Q53.54 11.76 53.68 11.81L53.68 11.81L53.68 11.81Q53.81 11.87 54.51 11.87L54.51 11.87L55.22 11.87L55.19 12.41L51.47 12.41L51.47 11.87L51.79 11.87L51.79 11.87Q52.25 11.87 52.32 11.81L52.32 11.81L52.32 11.81Q52.40 11.74 52.40 11.46L52.40 11.46L52.40 4.14L52.40 4.14Q52.40 3.82 52.21 3.73L52.21 3.73L52.21 3.73Q51.99 3.64 51.56 3.64L51.56 3.64ZM53.54 4.28L53.54 7.57L53.54 7.57Q53.72 7.70 54.43 7.71L54.43 7.71L54.43 7.71Q55.71 7.71 56.29 7.27L56.29 7.27L56.29 7.27Q56.88 6.84 56.88 5.92L56.88 5.92L56.88 5.92Q56.88 4.92 56.10 4.27L56.10 4.27L56.10 4.27Q55.34 3.64 53.96 3.64L53.96 3.64L53.96 3.64Q53.71 3.64 53.63 3.75L53.63 3.75L53.63 3.75Q53.55 3.84 53.54 4.28L53.54 4.28ZM77.88 3.64L77.50 3.64L77.50 3.08L80.86 3.08L80.88 3.64L80.34 3.64L80.34 3.64Q79.91 3.64 79.75 3.73L79.75 3.73L79.75 3.73Q79.58 3.83 79.58 4.16L79.58 4.16L79.58 9.33L79.58 9.33Q79.58 9.63 79.62 9.78L79.62 9.78L79.62 9.78Q79.66 10.01 79.82 10.41L79.82 10.41L79.82 10.41Q79.99 10.80 80.29 11.09L80.29 11.09L80.29 11.09Q80.60 11.40 81.16 11.63L81.16 11.63L81.16 11.63Q81.73 11.85 82.51 11.85L82.51 11.85L82.51 11.85Q83.36 11.85 83.91 11.67L83.91 11.67L83.91 11.67Q84.47 11.48 84.78 11.22L84.78 11.22L84.78 11.22Q85.09 10.96 85.23 10.49L85.23 10.49L85.23 10.49Q85.40 9.95 85.41 9.66L85.41 9.66L85.41 9.66Q85.44 9.18 85.44 8.67L85.44 8.67L85.44 4.14L85.44 4.14Q85.44 3.81 85.30 3.72L85.30 3.72L85.30 3.72Q85.15 3.64 84.67 3.64L84.67 3.64L84.18 3.64L84.21 3.08L86.84 3.08L86.84 3.64L86.65 3.64L86.65 3.64Q86.32 3.64 86.21 3.75L86.21 3.75L86.21 3.75Q86.10 3.86 86.10 4.25L86.10 4.25L86.10 9.22L86.10 9.22Q86.10 12.67 82.51 12.67L82.51 12.67L82.51 12.67Q80.34 12.67 79.39 11.76L79.39 11.76L79.39 11.76Q78.46 10.86 78.46 9.41L78.46 9.41L78.46 4.14L78.46 4.14Q78.46 3.81 78.35 3.72L78.35 3.72L78.35 3.72Q78.24 3.64 77.88 3.64L77.88 3.64ZM98.30 12.41L94.58 12.41L94.58 11.87L95.01 11.87L95.01 11.87Q95.39 11.87 95.44 11.81L95.44 11.81L95.44 11.81Q95.51 11.74 95.52 11.46L95.52 11.46L95.52 4.14L95.52 4.14Q95.52 3.81 95.43 3.72L95.43 3.72L95.43 3.72Q95.35 3.64 94.99 3.64L94.99 3.64L94.62 3.64L94.63 3.08L97.51 3.08L97.51 3.08Q98.66 3.08 99.31 3.19L99.31 3.19L99.31 3.19Q99.91 3.28 100.39 3.68L100.39 3.68L100.39 3.68Q101.58 4.64 101.58 6.19L101.58 6.19L101.58 6.19Q101.58 7.23 100.81 7.98L100.81 7.98L100.81 7.98Q100.03 8.74 98.62 8.73L98.62 8.73L98.62 8.73Q98.45 8.73 98.03 8.70L98.03 8.70L98.03 8.70Q97.92 8.69 97.50 8.62L97.50 8.62L97.50 8.62Q97.17 8.55 97.07 8.54L97.07 8.54L97.07 8.54Q96.78 8.47 96.76 8.46L96.76 8.46L96.65 8.44L96.65 11.46L96.65 11.46Q96.65 11.74 96.78 11.81L96.78 11.81L96.78 11.81Q96.89 11.87 97.60 11.87L97.60 11.87L98.30 11.87L98.30 12.41ZM96.65 4.28L96.65 8.02L96.65 8.02Q97.00 8.29 97.97 8.29L97.97 8.29L97.97 8.29Q99.10 8.29 99.67 7.75L99.67 7.75L99.67 7.75Q100.26 7.21 100.26 6.16L100.26 6.16L100.26 6.16Q100.26 4.98 99.35 4.31L99.35 4.31L99.35 4.31Q98.46 3.64 97.07 3.64L97.07 3.64L97.07 3.64Q96.82 3.64 96.74 3.75L96.74 3.75L96.74 3.75Q96.65 3.84 96.65 4.28L96.65 4.28ZM119.14 3.64L119.12 3.08L126.31 3.08L126.31 3.08Q126.32 4.14 126.38 5.28L126.38 5.28L125.83 5.30L125.83 5.30Q125.82 4.66 125.76 4.25L125.76 4.25L125.76 4.25Q125.72 3.89 125.67 3.80L125.67 3.80L125.67 3.80Q125.61 3.71 125.49 3.69L125.49 3.69L125.49 3.69Q125.40 3.68 124.81 3.68L124.81 3.68L122.43 3.68L122.43 3.68Q121.88 3.68 121.74 3.77L121.74 3.77L121.74 3.77Q121.62 3.86 121.62 4.33L121.62 4.33L121.62 6.28L121.62 6.28Q121.62 6.69 121.67 6.76L121.67 6.76L121.67 6.76Q121.74 6.84 122.08 6.84L122.08 6.84L124.20 6.84L124.20 6.84Q124.56 6.84 124.64 6.74L124.64 6.74L124.64 6.74Q124.72 6.64 124.72 6.17L124.72 6.17L124.72 5.63L125.24 5.63L125.24 8.97L124.72 8.97L124.72 8.26L124.72 8.26Q124.72 7.68 124.64 7.57L124.64 7.57L124.64 7.57Q124.56 7.46 124.22 7.46L124.22 7.46L122.12 7.46L122.12 7.46Q121.79 7.46 121.70 7.54L121.70 7.54L121.70 7.54Q121.62 7.63 121.62 7.89L121.62 7.89L121.62 11.20L121.62 11.20Q121.62 11.60 121.69 11.73L121.69 11.73L121.69 11.73Q121.77 11.87 122.04 11.87L122.04 11.87L122.97 11.87L122.97 12.41L119.38 12.41L119.38 11.87L119.79 11.87L119.79 11.87Q120.29 11.87 120.39 11.79L120.39 11.79L120.39 11.79Q120.48 11.70 120.48 11.33L120.48 11.33L120.48 4.24L120.48 4.24Q120.48 3.79 120.31 3.71L120.31 3.71L120.31 3.71Q120.18 3.64 119.14 3.64L119.14 3.64ZM134.80 7.83L134.80 7.83L134.80 7.83Q134.80 6.62 135.21 5.68L135.21 5.68L135.21 5.68Q135.63 4.72 136.32 4.12L136.32 4.12L136.32 4.12Q137.01 3.51 137.87 3.19L137.87 3.19L137.87 3.19Q138.71 2.88 139.66 2.88L139.66 2.88L139.66 2.88Q140.92 2.88 141.97 3.40L141.97 3.40L141.97 3.40Q143.05 3.93 143.76 5.07L143.76 5.07L143.76 5.07Q144.46 6.17 144.46 7.75L144.46 7.75L144.46 7.75Q144.46 8.70 144.16 9.54L144.16 9.54L144.16 9.54Q143.85 10.38 143.24 11.10L143.24 11.10L143.24 11.10Q142.64 11.81 141.70 12.22L141.70 12.22L141.70 12.22Q140.74 12.63 139.55 12.64L139.55 12.64L139.55 12.64Q138.41 12.64 137.48 12.23L137.48 12.23L137.48 12.23Q136.54 11.83 135.98 11.14L135.98 11.14L135.98 11.14Q135.41 10.45 135.11 9.60L135.11 9.60L135.11 9.60Q134.80 8.72 134.80 7.83ZM136.06 7.38L136.06 7.38L136.06 7.38Q136.06 8.52 136.49 9.60L136.49 9.60L136.49 9.60Q136.90 10.64 137.83 11.33L137.83 11.33L137.83 11.33Q138.74 12.03 139.92 12.04L139.92 12.04L139.92 12.04Q141.30 12.04 142.24 11.01L142.24 11.01L142.24 11.01Q143.19 9.97 143.19 8.10L143.19 8.10L143.19 8.10Q143.19 5.99 142.02 4.72L142.02 4.72L142.02 4.72Q140.88 3.46 139.36 3.45L139.36 3.45L139.36 3.45Q138.84 3.45 138.30 3.65L138.30 3.65L138.30 3.65Q137.76 3.85 137.25 4.25L137.25 4.25L137.25 4.25Q136.71 4.68 136.38 5.48L136.38 5.48L136.38 5.48Q136.06 6.27 136.06 7.38ZM152.91 3.64L152.52 3.64L152.54 3.08L155.76 3.08L155.76 3.08Q156.89 3.08 157.49 3.21L157.49 3.21L157.49 3.21Q158.14 3.37 158.60 3.75L158.60 3.75L158.60 3.75Q159.61 4.57 159.61 5.71L159.61 5.71L159.61 5.71Q159.61 6.43 159.13 7.04L159.13 7.04L159.13 7.04Q158.64 7.66 157.61 7.92L157.61 7.92L160.30 11.49L160.30 11.49Q160.60 11.87 160.90 11.87L160.90 11.87L161.50 11.87L161.53 12.41L159.50 12.41L156.50 8.10L156.33 8.10L156.33 8.10Q156.29 8.10 156.24 8.11L156.24 8.11L156.24 8.11Q156.18 8.11 156.17 8.11L156.17 8.11L156.17 8.11Q155.29 8.11 154.89 8.03L154.89 8.03L154.89 11.46L154.89 11.46Q154.89 11.76 155.03 11.81L155.03 11.81L155.03 11.81Q155.16 11.87 155.86 11.87L155.86 11.87L156.57 11.87L156.54 12.41L152.82 12.41L152.82 11.87L153.14 11.87L153.14 11.87Q153.60 11.87 153.67 11.81L153.67 11.81L153.67 11.81Q153.75 11.74 153.75 11.46L153.75 11.46L153.75 4.14L153.75 4.14Q153.75 3.82 153.56 3.73L153.56 3.73L153.56 3.73Q153.34 3.64 152.91 3.64L152.91 3.64ZM154.89 4.28L154.89 7.57L154.89 7.57Q155.07 7.70 155.78 7.71L155.78 7.71L155.78 7.71Q157.06 7.71 157.64 7.27L157.64 7.27L157.64 7.27Q158.22 6.84 158.22 5.92L158.22 5.92L158.22 5.92Q158.22 4.92 157.45 4.27L157.45 4.27L157.45 4.27Q156.69 3.64 155.31 3.64L155.31 3.64L155.31 3.64Q155.06 3.64 154.98 3.75L154.98 3.75L154.98 3.75Q154.90 3.84 154.89 4.28L154.89 4.28ZM179.23 8.24L179.23 8.24L179.23 8.24Q179.23 6.92 179.85 5.72L179.85 5.72L179.85 5.72Q180.46 4.52 181.69 3.72L181.69 3.72L181.69 3.72Q182.93 2.92 184.55 2.92L184.55 2.92L184.55 2.92Q185.82 2.92 187.41 3.57L187.41 3.57L187.41 2.86L187.97 2.86L188.06 5.92L187.52 5.93L187.42 4.48L187.42 4.48Q187.34 4.41 187.07 4.24L187.07 4.24L187.07 4.24Q186.81 4.07 186.06 3.83L186.06 3.83L186.06 3.83Q185.34 3.60 184.43 3.60L184.43 3.60L184.43 3.60Q183.46 3.60 182.69 3.93L182.69 3.93L182.69 3.93Q181.92 4.27 181.45 4.83L181.45 4.83L181.45 4.83Q180.99 5.39 180.74 6.08L180.74 6.08L180.74 6.08Q180.49 6.78 180.49 7.57L180.49 7.57L180.49 7.57Q180.49 9.33 181.61 10.69L181.61 10.69L181.61 10.69Q182.73 12.05 184.59 12.05L184.59 12.05L184.59 12.05Q185.29 12.05 185.92 11.85L185.92 11.85L185.92 11.85Q186.55 11.66 186.77 11.48L186.77 11.48L187.01 11.28L187.01 8.78L185.35 8.78L185.34 8.23L189.20 8.23L189.21 8.78L188.15 8.78L188.15 11.64L187.36 11.98L187.36 11.98Q186.66 12.30 186.44 12.39L186.44 12.39L186.44 12.39Q186.18 12.48 185.54 12.61L185.54 12.61L185.54 12.61Q184.93 12.74 184.32 12.74L184.32 12.74L184.32 12.74Q183.03 12.74 182.05 12.37L182.05 12.37L182.05 12.37Q181.06 12.00 180.45 11.36L180.45 11.36L180.45 11.36Q179.86 10.76 179.54 9.94L179.54 9.94L179.54 9.94Q179.23 9.15 179.23 8.24ZM197.29 3.64L196.90 3.64L196.91 3.08L200.13 3.08L200.13 3.08Q201.26 3.08 201.87 3.21L201.87 3.21L201.87 3.21Q202.51 3.37 202.97 3.75L202.97 3.75L202.97 3.75Q203.98 4.57 203.98 5.71L203.98 5.71L203.98 5.71Q203.98 6.43 203.51 7.04L203.51 7.04L203.51 7.04Q203.01 7.66 201.98 7.92L201.98 7.92L204.67 11.49L204.67 11.49Q204.98 11.87 205.27 11.87L205.27 11.87L205.87 11.87L205.90 12.41L203.87 12.41L200.87 8.10L200.70 8.10L200.70 8.10Q200.66 8.10 200.61 8.11L200.61 8.11L200.61 8.11Q200.55 8.11 200.54 8.11L200.54 8.11L200.54 8.11Q199.66 8.11 199.26 8.03L199.26 8.03L199.26 11.46L199.26 11.46Q199.26 11.76 199.40 11.81L199.40 11.81L199.40 11.81Q199.53 11.87 200.23 11.87L200.23 11.87L200.94 11.87L200.92 12.41L197.19 12.41L197.19 11.87L197.51 11.87L197.51 11.87Q197.98 11.87 198.04 11.81L198.04 11.81L198.04 11.81Q198.13 11.74 198.13 11.46L198.13 11.46L198.13 4.14L198.13 4.14Q198.13 3.82 197.93 3.73L197.93 3.73L197.93 3.73Q197.71 3.64 197.29 3.64L197.29 3.64ZM199.26 4.28L199.26 7.57L199.26 7.57Q199.45 7.70 200.16 7.71L200.16 7.71L200.16 7.71Q201.43 7.71 202.01 7.27L202.01 7.27L202.01 7.27Q202.60 6.84 202.60 5.92L202.60 5.92L202.60 5.92Q202.60 4.92 201.82 4.27L201.82 4.27L201.82 4.27Q201.07 3.64 199.68 3.64L199.68 3.64L199.68 3.64Q199.43 3.64 199.35 3.75L199.35 3.75L199.35 3.75Q199.27 3.84 199.26 4.28L199.26 4.28ZM213.66 3.64L213.65 3.08L220.86 3.08L220.86 3.08Q220.88 4.14 220.93 5.28L220.93 5.28L220.38 5.30L220.38 5.30Q220.37 4.66 220.32 4.25L220.32 4.25L220.32 4.25Q220.27 3.89 220.22 3.80L220.22 3.80L220.22 3.80Q220.17 3.71 220.05 3.69L220.05 3.69L220.05 3.69Q219.95 3.68 219.37 3.68L219.37 3.68L216.99 3.68L216.99 3.68Q216.44 3.68 216.30 3.77L216.30 3.77L216.30 3.77Q216.17 3.86 216.17 4.33L216.17 4.33L216.17 6.28L216.17 6.28Q216.17 6.69 216.23 6.76L216.23 6.76L216.23 6.76Q216.30 6.84 216.64 6.84L216.64 6.84L218.75 6.84L218.75 6.84Q219.11 6.84 219.19 6.73L219.19 6.73L219.19 6.73Q219.28 6.63 219.28 6.14L219.28 6.14L219.28 5.61L219.80 5.63L219.80 8.97L219.28 8.97L219.28 8.24L219.28 8.24Q219.28 7.66 219.21 7.57L219.21 7.57L219.21 7.57Q219.13 7.46 218.78 7.46L218.78 7.46L216.68 7.46L216.68 7.46Q216.34 7.46 216.26 7.54L216.26 7.54L216.26 7.54Q216.17 7.63 216.17 7.89L216.17 7.89L216.17 11.20L216.17 11.20Q216.17 11.57 216.26 11.67L216.26 11.67L216.26 11.67Q216.34 11.77 216.62 11.77L216.62 11.77L216.62 11.77Q219.54 11.75 220.06 11.69L220.06 11.69L220.06 11.69Q220.58 11.63 220.66 11.38L220.66 11.38L220.67 11.36L220.68 11.35L220.90 10.17L221.38 10.25L221.03 12.41L213.93 12.41L213.93 11.87L214.30 11.87L214.30 11.87Q214.86 11.87 214.94 11.80L214.94 11.80L214.94 11.80Q215.04 11.72 215.04 11.33L215.04 11.33L215.04 4.24L215.04 4.24Q215.04 3.82 214.89 3.73L214.89 3.73L214.89 3.73Q214.72 3.64 214.06 3.64L214.06 3.64L213.66 3.64ZM229.27 12.41L229.26 11.87L229.43 11.87L229.43 11.87Q229.82 11.87 229.95 11.73L229.95 11.73L229.95 11.73Q230.07 11.57 230.41 10.83L230.41 10.83L231.31 8.82L231.89 7.53L231.89 7.53Q232.16 6.97 232.20 6.86L232.20 6.86L232.20 6.86Q232.26 6.70 232.32 6.60L232.32 6.60L232.32 6.60Q232.37 6.51 232.38 6.45L232.38 6.45L232.48 6.21L233.91 2.74L234.20 2.74L234.20 2.74Q235.05 4.98 237.24 10.25L237.24 10.25L237.24 10.25Q237.69 11.34 237.88 11.64L237.88 11.64L237.88 11.64Q238.02 11.87 238.46 11.87L238.46 11.87L238.67 11.87L238.66 12.41L235.46 12.41L235.48 11.87L235.89 11.87L235.89 11.87Q236.51 11.87 236.51 11.70L236.51 11.70L236.51 11.70Q236.51 11.63 236.37 11.27L236.37 11.27L235.33 8.72L232.09 8.72L230.98 11.18L230.98 11.18Q230.84 11.50 230.84 11.63L230.84 11.63L230.84 11.63Q230.84 11.79 230.94 11.83L230.94 11.83L230.94 11.83Q231.03 11.87 231.42 11.87L231.42 11.87L231.99 11.87L231.99 12.41L229.27 12.41ZM233.77 4.79L232.35 8.10L235.09 8.10L233.77 4.79ZM246.68 5.35L246.18 5.33L246.18 5.33Q246.31 4.17 246.39 3.08L246.39 3.08L254.47 3.08L254.47 3.08Q254.39 4.13 254.36 4.53L254.36 4.53L254.36 4.53Q254.32 5.26 254.30 5.32L254.30 5.32L253.80 5.30L253.80 5.30Q253.88 4.34 253.88 4.16L253.88 4.16L253.88 4.16Q253.88 3.88 253.74 3.79L253.74 3.79L253.74 3.79Q253.57 3.69 253.16 3.69L253.16 3.69L251.56 3.69L251.56 3.69Q251.05 3.69 250.93 3.79L250.93 3.79L250.93 3.79Q250.83 3.87 250.82 4.36L250.82 4.36L250.82 11.22L250.82 11.22Q250.82 11.66 250.97 11.76L250.97 11.76L250.97 11.76Q251.13 11.87 251.64 11.87L251.64 11.87L252.20 11.87L252.21 12.41L248.52 12.40L248.52 11.87L248.74 11.87L248.74 11.87Q249.41 11.87 249.55 11.79L249.55 11.79L249.55 11.79Q249.70 11.70 249.70 11.28L249.70 11.28L249.70 4.48L249.70 4.48Q249.70 3.92 249.60 3.80L249.60 3.80L249.60 3.80Q249.50 3.69 249.07 3.69L249.07 3.69L247.60 3.69L247.60 3.69Q247.42 3.69 247.35 3.71L247.35 3.71L247.35 3.71Q247.28 3.72 247.17 3.72L247.17 3.72L247.17 3.72Q247.15 3.72 247.03 3.79L247.03 3.79L247.03 3.79Q246.95 3.84 246.92 3.86L246.92 3.86L246.92 3.86Q246.89 3.88 246.85 3.99L246.85 3.99L246.85 3.99Q246.83 4.05 246.80 4.14L246.80 4.14L246.80 4.14Q246.77 4.21 246.75 4.36L246.75 4.36L246.75 4.36Q246.72 4.59 246.72 4.61L246.72 4.61L246.72 4.61Q246.72 4.80 246.71 4.95L246.71 4.95L246.71 4.95Q246.71 5.02 246.70 5.15L246.70 5.15L246.70 5.15Q246.70 5.29 246.68 5.35L246.68 5.35ZM262.22 3.64L262.21 3.08L264.38 3.08L270.12 10.48L270.12 4.14L270.12 4.14Q270.12 3.81 269.96 3.72L269.96 3.72L269.96 3.72Q269.81 3.64 269.35 3.64L269.35 3.64L268.86 3.64L268.88 3.08L271.87 3.08L271.87 3.64L271.54 3.64L271.54 3.64Q271.08 3.64 270.93 3.75L270.93 3.75L270.93 3.75Q270.78 3.86 270.78 4.25L270.78 4.25L270.78 12.32L270.78 12.47L270.78 12.47Q270.78 12.52 270.76 12.57L270.76 12.57L270.76 12.57Q270.75 12.61 270.72 12.64L270.72 12.64L270.72 12.64Q270.70 12.65 270.65 12.65L270.65 12.65L270.46 12.65L270.40 12.65L270.37 12.65L270.34 12.64L270.34 12.64Q270.31 12.64 270.30 12.63L270.30 12.63L270.30 12.63Q270.29 12.61 270.29 12.60L270.29 12.60L270.29 12.60Q270.29 12.58 270.27 12.57L270.27 12.57L270.27 12.57Q270.25 12.54 270.22 12.50L270.22 12.50L270.22 12.50Q270.20 12.48 270.18 12.45L270.18 12.45L270.18 12.45Q270.16 12.41 270.15 12.40L270.15 12.40L264.04 4.56L264.11 11.22L264.11 11.22Q264.11 11.67 264.28 11.77L264.28 11.77L264.28 11.77Q264.43 11.87 265.15 11.87L265.15 11.87L265.38 11.87L265.38 12.41L262.45 12.41L262.45 11.87L262.87 11.87L262.87 11.87Q263.25 11.87 263.35 11.76L263.35 11.76L263.35 11.76Q263.45 11.66 263.46 11.25L263.46 11.25L263.46 3.80L263.31 3.64L262.22 3.64ZM279.62 3.64L279.60 3.08L286.82 3.08L286.82 3.08Q286.83 4.14 286.88 5.28L286.88 5.28L286.34 5.30L286.34 5.30Q286.32 4.66 286.27 4.25L286.27 4.25L286.27 4.25Q286.23 3.89 286.17 3.80L286.17 3.80L286.17 3.80Q286.12 3.71 286.00 3.69L286.00 3.69L286.00 3.69Q285.91 3.68 285.32 3.68L285.32 3.68L282.94 3.68L282.94 3.68Q282.39 3.68 282.25 3.77L282.25 3.77L282.25 3.77Q282.13 3.86 282.13 4.33L282.13 4.33L282.13 6.28L282.13 6.28Q282.13 6.69 282.18 6.76L282.18 6.76L282.18 6.76Q282.25 6.84 282.59 6.84L282.59 6.84L284.70 6.84L284.70 6.84Q285.07 6.84 285.15 6.73L285.15 6.73L285.15 6.73Q285.23 6.63 285.24 6.14L285.24 6.14L285.24 5.61L285.75 5.63L285.75 8.97L285.24 8.97L285.24 8.24L285.24 8.24Q285.24 7.66 285.16 7.57L285.16 7.57L285.16 7.57Q285.08 7.46 284.73 7.46L284.73 7.46L282.63 7.46L282.63 7.46Q282.30 7.46 282.21 7.54L282.21 7.54L282.21 7.54Q282.13 7.63 282.13 7.89L282.13 7.89L282.13 11.20L282.13 11.20Q282.13 11.57 282.21 11.67L282.21 11.67L282.21 11.67Q282.30 11.77 282.57 11.77L282.57 11.77L282.57 11.77Q285.49 11.75 286.02 11.69L286.02 11.69L286.02 11.69Q286.54 11.63 286.62 11.38L286.62 11.38L286.62 11.36L286.63 11.35L286.86 10.17L287.33 10.25L286.99 12.41L279.88 12.41L279.88 11.87L280.25 11.87L280.25 11.87Q280.81 11.87 280.90 11.80L280.90 11.80L280.90 11.80Q280.99 11.72 280.99 11.33L280.99 11.33L280.99 4.24L280.99 4.24Q280.99 3.82 280.84 3.73L280.84 3.73L280.84 3.73Q280.67 3.64 280.01 3.64L280.01 3.64L279.62 3.64ZM295.18 10.04L295.18 10.04L295.67 9.98L295.86 10.85L295.86 10.85Q295.97 11.33 296.04 11.41L296.04 11.41L296.04 11.41Q296.11 11.49 296.52 11.64L296.52 11.64L296.52 11.64Q297.36 11.95 298.25 11.95L298.25 11.95L298.25 11.95Q299.04 11.95 299.58 11.49L299.58 11.49L299.58 11.49Q300.11 11.04 300.11 10.26L300.11 10.26L300.11 10.26Q300.11 9.65 299.65 9.21L299.65 9.21L299.65 9.21Q299.17 8.76 298.32 8.30L298.32 8.30L297.75 7.98L297.75 7.98Q297.00 7.55 296.77 7.36L296.77 7.36L296.77 7.36Q296.41 7.08 296.10 6.59L296.10 6.59L296.10 6.59Q295.78 6.10 295.78 5.46L295.78 5.46L295.78 5.46Q295.78 4.39 296.63 3.68L296.63 3.68L296.63 3.68Q297.47 2.97 298.57 2.97L298.57 2.97L298.57 2.97Q298.85 2.97 299.20 3.04L299.20 3.04L299.20 3.04Q299.40 3.08 299.74 3.17L299.74 3.17L299.97 3.25L299.97 3.25Q300.07 3.25 300.11 3.16L300.11 3.16L300.11 3.16Q300.17 3.05 300.17 2.98L300.17 2.98L300.18 2.88L300.66 2.85L300.87 5.41L300.36 5.43L300.24 4.18L300.24 4.18Q299.50 3.62 298.33 3.62L298.33 3.62L298.33 3.62Q297.69 3.62 297.19 4.05L297.19 4.05L297.19 4.05Q296.71 4.47 296.71 5.12L296.71 5.12L296.71 5.12Q296.71 5.72 297.16 6.17L297.16 6.17L297.16 6.17Q297.59 6.60 298.46 7.08L298.46 7.08L299.23 7.50L299.23 7.50Q300.18 8.03 300.71 8.59L300.71 8.59L300.71 8.59Q301.25 9.15 301.25 9.92L301.25 9.92L301.25 9.92Q301.25 10.99 300.39 11.76L300.39 11.76L300.39 11.76Q299.52 12.54 298.07 12.54L298.07 12.54L298.07 12.54Q297.51 12.54 297.00 12.41L297.00 12.41L297.00 12.41Q296.50 12.29 296.45 12.29L296.45 12.29L296.45 12.29Q296.19 12.29 296.19 12.58L296.19 12.58L296.21 12.76L295.73 12.80L295.73 12.80Q295.67 12.41 295.18 10.04ZM309.40 10.04L309.40 10.04L309.89 9.98L310.08 10.85L310.08 10.85Q310.19 11.33 310.26 11.41L310.26 11.41L310.26 11.41Q310.32 11.49 310.73 11.64L310.73 11.64L310.73 11.64Q311.58 11.95 312.47 11.95L312.47 11.95L312.47 11.95Q313.26 11.95 313.80 11.49L313.80 11.49L313.80 11.49Q314.33 11.04 314.33 10.26L314.33 10.26L314.33 10.26Q314.33 9.65 313.87 9.21L313.87 9.21L313.87 9.21Q313.39 8.76 312.54 8.30L312.54 8.30L311.96 7.98L311.96 7.98Q311.22 7.55 310.99 7.36L310.99 7.36L310.99 7.36Q310.63 7.08 310.31 6.59L310.31 6.59L310.31 6.59Q310.00 6.10 310.00 5.46L310.00 5.46L310.00 5.46Q310.00 4.39 310.84 3.68L310.84 3.68L310.84 3.68Q311.68 2.97 312.79 2.97L312.79 2.97L312.79 2.97Q313.07 2.97 313.42 3.04L313.42 3.04L313.42 3.04Q313.62 3.08 313.95 3.17L313.95 3.17L314.19 3.25L314.19 3.25Q314.29 3.25 314.33 3.16L314.33 3.16L314.33 3.16Q314.38 3.05 314.38 2.98L314.38 2.98L314.40 2.88L314.88 2.85L315.09 5.41L314.58 5.43L314.46 4.18L314.46 4.18Q313.71 3.62 312.55 3.62L312.55 3.62L312.55 3.62Q311.91 3.62 311.40 4.05L311.40 4.05L311.40 4.05Q310.93 4.47 310.93 5.12L310.93 5.12L310.93 5.12Q310.93 5.72 311.38 6.17L311.38 6.17L311.38 6.17Q311.81 6.60 312.68 7.08L312.68 7.08L313.45 7.50L313.45 7.50Q314.40 8.03 314.93 8.59L314.93 8.59L314.93 8.59Q315.46 9.15 315.46 9.92L315.46 9.92L315.46 9.92Q315.46 10.99 314.61 11.76L314.61 11.76L314.61 11.76Q313.74 12.54 312.29 12.54L312.29 12.54L312.29 12.54Q311.73 12.54 311.22 12.41L311.22 12.41L311.22 12.41Q310.72 12.29 310.67 12.29L310.67 12.29L310.67 12.29Q310.41 12.29 310.41 12.58L310.41 12.58L310.43 12.76L309.95 12.80L309.95 12.80Q309.89 12.41 309.40 10.04Z"></path></g></svg>